<svg width="24" height="24" viewBox="0 0 24 24" fill="none" xmlns="http://www.w3.org/2000/svg">
<g clip-path="url(#clip0_112_3211)">
<path d="M17.3471 5.00764C17.2448 5.06884 16.8055 5.33554 16.6515 5.43937L14.5116 6.79639L5.85687 3.70353L3.4931 5.11674L10.0039 9.63338L6.37414 11.877L3.4916 10.8392L1.53051 12.0117L4.42516 15.0923C4.44296 15.1092 4.46166 15.1251 4.48089 15.1402C4.48254 15.1417 4.48371 15.1437 4.48426 15.1458C4.48817 15.1699 4.49338 15.1937 4.49986 15.2172L5.83992 19.2436L7.7886 18.0786L8.26157 14.9861L11.9522 12.8905L12.8526 20.7726L15.2235 19.3551L16.5895 10.2754L18.7983 9.03355C18.9649 8.94568 19.4074 8.68522 19.5075 8.62537C20.4239 8.0775 21.0984 7.50361 21.5121 6.91908C22.2147 5.92894 21.9623 5.1838 21.7494 4.82778C21.0731 3.69651 19.4275 3.76385 17.3471 5.00764Z" stroke="#121932" stroke-width="1.6"/>
</g>
<defs>
<clipPath id="clip0_112_3211">
<rect width="24" height="24" fill="white"/>
</clipPath>
</defs>
</svg>
