<svg width="49" height="48" viewBox="0 0 49 48" fill="none" xmlns="http://www.w3.org/2000/svg">
<path d="M36.5 16C36.5 12.8174 35.2357 9.76516 32.9853 7.51472C30.7348 5.26428 27.6826 4 24.5 4C21.3174 4 18.2652 5.26428 16.0147 7.51472C13.7643 9.76516 12.5 12.8174 12.5 16C12.5 30 6.5 34 6.5 34H42.5C42.5 34 36.5 30 36.5 16Z" stroke="#6D717F" stroke-width="2" stroke-linecap="round" stroke-linejoin="round"/>
<path d="M27.96 42C27.6084 42.6062 27.1037 43.1093 26.4965 43.4591C25.8892 43.8088 25.2008 43.9929 24.5 43.9929C23.7992 43.9929 23.1108 43.8088 22.5036 43.4591C21.8963 43.1093 21.3916 42.6062 21.04 42" stroke="#6D717F" stroke-width="2" stroke-linecap="round" stroke-linejoin="round"/>
</svg>
