<svg width="103" height="24" viewBox="0 0 103 24" fill="none" xmlns="http://www.w3.org/2000/svg">
<path d="M21.5 15V19C21.5 19.5304 21.2893 20.0391 20.9142 20.4142C20.5391 20.7893 20.0304 21 19.5 21H5.5C4.96957 21 4.46086 20.7893 4.08579 20.4142C3.71071 20.0391 3.5 19.5304 3.5 19V15" stroke="#4C7AEE" stroke-width="2" stroke-linecap="round" stroke-linejoin="round"/>
<path d="M17.5 8L12.5 3L7.5 8" stroke="#4C7AEE" stroke-width="2" stroke-linecap="round" stroke-linejoin="round"/>
<path d="M12.5 3V15" stroke="#4C7AEE" stroke-width="2" stroke-linecap="round" stroke-linejoin="round"/>
<path d="M35.748 12.128L35.252 13.728H38.404L37.908 12.128C37.716 11.5413 37.5347 10.96 37.364 10.384C37.1933 9.79733 37.0227 9.2 36.852 8.592H36.788C36.628 9.2 36.4627 9.79733 36.292 10.384C36.1213 10.96 35.94 11.5413 35.748 12.128ZM32.548 18L36.1 7.504H37.604L41.156 18H39.732L38.74 14.8H34.916L33.908 18H32.548ZM45.1711 18.192C44.2005 18.192 43.4218 17.84 42.8351 17.136C42.2485 16.4213 41.9551 15.4187 41.9551 14.128C41.9551 13.2853 42.1098 12.56 42.4191 11.952C42.7391 11.3333 43.1551 10.8587 43.6671 10.528C44.1898 10.1973 44.7445 10.032 45.3311 10.032C45.7791 10.032 46.1685 10.112 46.4991 10.272C46.8298 10.432 47.1658 10.6507 47.5071 10.928L47.4431 9.6V6.608H48.7711V18H47.6831L47.5711 17.088H47.5231C47.2245 17.3867 46.8725 17.648 46.4671 17.872C46.0618 18.0853 45.6298 18.192 45.1711 18.192ZM45.4591 17.088C46.1418 17.088 46.8031 16.7307 47.4431 16.016V11.952C47.1125 11.6533 46.7925 11.4453 46.4831 11.328C46.1845 11.2 45.8751 11.136 45.5551 11.136C45.1391 11.136 44.7605 11.264 44.4191 11.52C44.0885 11.7653 43.8218 12.112 43.6191 12.56C43.4165 12.9973 43.3151 13.5147 43.3151 14.112C43.3151 15.04 43.5018 15.7707 43.8751 16.304C44.2485 16.8267 44.7765 17.088 45.4591 17.088ZM54.0461 18.192C53.0755 18.192 52.2968 17.84 51.7101 17.136C51.1235 16.4213 50.8301 15.4187 50.8301 14.128C50.8301 13.2853 50.9848 12.56 51.2941 11.952C51.6141 11.3333 52.0301 10.8587 52.5421 10.528C53.0648 10.1973 53.6195 10.032 54.2061 10.032C54.6541 10.032 55.0435 10.112 55.3741 10.272C55.7048 10.432 56.0408 10.6507 56.3821 10.928L56.3181 9.6V6.608H57.6461V18H56.5581L56.4461 17.088H56.3981C56.0995 17.3867 55.7475 17.648 55.3421 17.872C54.9368 18.0853 54.5048 18.192 54.0461 18.192ZM54.3341 17.088C55.0168 17.088 55.6781 16.7307 56.3181 16.016V11.952C55.9875 11.6533 55.6675 11.4453 55.3581 11.328C55.0595 11.2 54.7501 11.136 54.4301 11.136C54.0141 11.136 53.6355 11.264 53.2941 11.52C52.9635 11.7653 52.6968 12.112 52.4941 12.56C52.2915 12.9973 52.1901 13.5147 52.1901 14.112C52.1901 15.04 52.3768 15.7707 52.7501 16.304C53.1235 16.8267 53.6515 17.088 54.3341 17.088ZM63.4683 21.28V10.224H64.5563L64.6683 11.12H64.7163C65.0683 10.8213 65.4523 10.5653 65.8683 10.352C66.2949 10.1387 66.7376 10.032 67.1963 10.032C68.1989 10.032 68.9616 10.3947 69.4843 11.12C70.0069 11.8347 70.2683 12.7947 70.2683 14C70.2683 14.8747 70.1083 15.6267 69.7883 16.256C69.4789 16.8853 69.0683 17.3653 68.5563 17.696C68.0549 18.0267 67.5056 18.192 66.9083 18.192C66.5456 18.192 66.1829 18.112 65.8203 17.952C65.4683 17.792 65.1109 17.5733 64.7483 17.296L64.7803 18.656V21.28H63.4683ZM66.6843 17.088C67.3243 17.088 67.8523 16.816 68.2683 16.272C68.6949 15.7173 68.9083 14.96 68.9083 14C68.9083 13.1467 68.7483 12.4587 68.4283 11.936C68.1189 11.4027 67.5963 11.136 66.8602 11.136C66.5296 11.136 66.1936 11.2267 65.8523 11.408C65.5216 11.5893 65.1643 11.8507 64.7803 12.192V16.272C65.1323 16.5707 65.4736 16.784 65.8043 16.912C66.1349 17.0293 66.4283 17.088 66.6843 17.088ZM72.3433 18V6.608H73.6553V9.712L73.6073 11.312C73.9806 10.96 74.3699 10.6613 74.7753 10.416C75.1913 10.16 75.6659 10.032 76.1993 10.032C77.0206 10.032 77.6179 10.2933 77.9913 10.816C78.3753 11.328 78.5673 12.08 78.5673 13.072V18H77.2553V13.248C77.2553 12.5227 77.1379 11.9947 76.9033 11.664C76.6686 11.3333 76.2953 11.168 75.7833 11.168C75.3886 11.168 75.0313 11.2693 74.7113 11.472C74.4019 11.6747 74.0499 11.9733 73.6553 12.368V18H72.3433ZM84.0704 18.192C83.441 18.192 82.849 18.032 82.2944 17.712C81.7504 17.392 81.3077 16.928 80.9664 16.32C80.6357 15.712 80.4704 14.9813 80.4704 14.128C80.4704 13.2533 80.6357 12.512 80.9664 11.904C81.3077 11.296 81.7504 10.832 82.2944 10.512C82.849 10.192 83.441 10.032 84.0704 10.032C84.7104 10.032 85.3024 10.192 85.8464 10.512C86.3904 10.832 86.8277 11.296 87.1584 11.904C87.4997 12.512 87.6704 13.2533 87.6704 14.128C87.6704 14.9813 87.4997 15.712 87.1584 16.32C86.8277 16.928 86.3904 17.392 85.8464 17.712C85.3024 18.032 84.7104 18.192 84.0704 18.192ZM84.0704 17.104C84.7424 17.104 85.281 16.832 85.6864 16.288C86.1024 15.7333 86.3104 15.0133 86.3104 14.128C86.3104 13.232 86.1024 12.5067 85.6864 11.952C85.281 11.3973 84.7424 11.12 84.0704 11.12C83.409 11.12 82.8704 11.3973 82.4544 11.952C82.0384 12.5067 81.8304 13.232 81.8304 14.128C81.8304 15.0133 82.0384 15.7333 82.4544 16.288C82.8704 16.832 83.409 17.104 84.0704 17.104ZM91.9006 18.192C91.0686 18.192 90.4873 17.952 90.1566 17.472C89.8366 16.992 89.6766 16.368 89.6766 15.6V11.296H88.5246V10.304L89.7406 10.224L89.9006 8.048H91.0046V10.224H93.1006V11.296H91.0046V15.616C91.0046 16.096 91.09 16.4693 91.2606 16.736C91.442 16.992 91.7566 17.12 92.2046 17.12C92.3433 17.12 92.4926 17.0987 92.6526 17.056C92.8126 17.0027 92.9566 16.9547 93.0846 16.912L93.3406 17.904C93.1273 17.9787 92.8926 18.0427 92.6366 18.096C92.3913 18.16 92.146 18.192 91.9006 18.192ZM97.6641 18.192C97.0348 18.192 96.4428 18.032 95.8881 17.712C95.3441 17.392 94.9015 16.928 94.5601 16.32C94.2295 15.712 94.0641 14.9813 94.0641 14.128C94.0641 13.2533 94.2295 12.512 94.5601 11.904C94.9015 11.296 95.3441 10.832 95.8881 10.512C96.4428 10.192 97.0348 10.032 97.6641 10.032C98.3041 10.032 98.8961 10.192 99.4401 10.512C99.9841 10.832 100.421 11.296 100.752 11.904C101.093 12.512 101.264 13.2533 101.264 14.128C101.264 14.9813 101.093 15.712 100.752 16.32C100.421 16.928 99.9841 17.392 99.4401 17.712C98.8961 18.032 98.3041 18.192 97.6641 18.192ZM97.6641 17.104C98.3361 17.104 98.8748 16.832 99.2801 16.288C99.6961 15.7333 99.9041 15.0133 99.9041 14.128C99.9041 13.232 99.6961 12.5067 99.2801 11.952C98.8748 11.3973 98.3361 11.12 97.6641 11.12C97.0028 11.12 96.4641 11.3973 96.0481 11.952C95.6321 12.5067 95.4241 13.232 95.4241 14.128C95.4241 15.0133 95.6321 15.7333 96.0481 16.288C96.4641 16.832 97.0028 17.104 97.6641 17.104Z" fill="#4C7AEE"/>
</svg>
