<svg width="25" height="24" viewBox="0 0 25 24" fill="none" xmlns="http://www.w3.org/2000/svg">
<path d="M20.1023 10.3636C20.1023 16.0909 12.7386 21 12.7386 21C12.7386 21 5.375 16.0909 5.375 10.3636C5.375 8.41068 6.15081 6.53771 7.53176 5.15676C8.91271 3.77581 10.7857 3 12.7386 3C14.6916 3 16.5646 3.77581 17.9455 5.15676C19.3265 6.53771 20.1023 8.41068 20.1023 10.3636Z" stroke="#121932" stroke-width="2" stroke-linecap="round" stroke-linejoin="round"/>
<path d="M12.7386 12.8183C14.0942 12.8183 15.1932 11.7193 15.1932 10.3637C15.1932 9.00812 14.0942 7.90918 12.7386 7.90918C11.383 7.90918 10.2841 9.00812 10.2841 10.3637C10.2841 11.7193 11.383 12.8183 12.7386 12.8183Z" stroke="#121932" stroke-width="2" stroke-linecap="round" stroke-linejoin="round"/>
</svg>
