<svg width="25" height="24" viewBox="0 0 25 24" fill="none" xmlns="http://www.w3.org/2000/svg">
<path d="M7.3125 15.375C8.24448 15.375 9 14.6195 9 13.6875C9 12.7555 8.24448 12 7.3125 12C6.38052 12 5.625 12.7555 5.625 13.6875C5.625 14.6195 6.38052 15.375 7.3125 15.375Z" fill="#121932"/>
<path d="M17.4375 15.375C18.3695 15.375 19.125 14.6195 19.125 13.6875C19.125 12.7555 18.3695 12 17.4375 12C16.5055 12 15.75 12.7555 15.75 13.6875C15.75 14.6195 16.5055 15.375 17.4375 15.375Z" fill="#121932"/>
<path d="M3.625 10L20.625 10" stroke="#121932" stroke-width="2"/>
<path d="M3.625 18H22.625" stroke="#121932" stroke-width="2"/>
<path d="M3.625 21C3.625 20.6138 3.625 13.3612 3.625 9.86088C3.625 9.62151 3.66797 9.38518 3.75186 9.161L5.57131 4.29903C5.86368 3.51776 6.61026 3 7.44445 3H17.4118C18.1994 3 18.9136 3.46222 19.2363 4.18069L21.4495 9.10915C21.5652 9.36679 21.625 9.64602 21.625 9.92846V21" stroke="#121932" stroke-width="2" stroke-linecap="round"/>
</svg>
