<svg width="40" height="61" viewBox="0 0 40 61" fill="none" xmlns="http://www.w3.org/2000/svg">
<circle cx="20" cy="54" r="5.5" fill="white" stroke="#B79B39" stroke-width="3"/>
<path d="M20 47L24.3301 39.5H15.6699L20 47Z" fill="#B79B39"/>
<rect width="40" height="40" rx="2" fill="#B79B39"/>
<path d="M14.6875 23.375C15.6195 23.375 16.375 22.6195 16.375 21.6875C16.375 20.7555 15.6195 20 14.6875 20C13.7555 20 13 20.7555 13 21.6875C13 22.6195 13.7555 23.375 14.6875 23.375Z" fill="white"/>
<path d="M24.8125 23.375C25.7445 23.375 26.5 22.6195 26.5 21.6875C26.5 20.7555 25.7445 20 24.8125 20C23.8805 20 23.125 20.7555 23.125 21.6875C23.125 22.6195 23.8805 23.375 24.8125 23.375Z" fill="white"/>
<path d="M11 18L28 18" stroke="white" stroke-width="2"/>
<path d="M11 26H30" stroke="white" stroke-width="2"/>
<path d="M11 29C11 28.6138 11 21.3612 11 17.8609C11 17.6215 11.043 17.3852 11.1269 17.161L12.9463 12.299C13.2387 11.5178 13.9853 11 14.8194 11H24.7868C25.5744 11 26.2886 11.4622 26.6113 12.1807L28.8245 17.1091C28.9402 17.3668 29 17.646 29 17.9285V29" stroke="white" stroke-width="2" stroke-linecap="round"/>
</svg>
