<svg width="40" height="61" viewBox="0 0 40 61" fill="none" xmlns="http://www.w3.org/2000/svg">
<circle cx="20" cy="54" r="5.5" fill="white" stroke="#4C7AEE" stroke-width="3"/>
<path d="M20 47L24.3301 39.5H15.6699L20 47Z" fill="#4C7AEE"/>
<rect width="40" height="40" rx="2" fill="#4C7AEE"/>
<path d="M9.5 12.5C9.5 12.5 9 20 12.5 21.5C16 23 23 21.5 26 22.5C29 23.5 28 29 28 29" stroke="white" stroke-width="2" stroke-linecap="round"/>
<path d="M20 19C22.2091 19 24 17.2091 24 15C24 12.7909 22.2091 11 20 11C17.7909 11 16 12.7909 16 15C16 17.2091 17.7909 19 20 19Z" stroke="white" stroke-width="2" stroke-linecap="round" stroke-linejoin="round"/>
</svg>
