<svg width="49" height="48" viewBox="0 0 49 48" fill="none" xmlns="http://www.w3.org/2000/svg">
<path d="M45.3414 18.7612C45.3414 17.4739 44.2814 16.4011 43.0095 16.4011H40.6069C40.0062 16.4011 39.4762 16.7229 39.1936 17.2236L37.2503 12.8968C36.4023 10.7155 32.5511 9.75 24.8134 9.75C17.0756 9.75 13.2244 10.7155 12.3764 12.8968L10.3978 17.2236C10.1152 16.7229 9.58517 16.4011 8.98452 16.4011H6.58193C5.30997 16.4011 4.25 17.4739 4.25 18.7612C4.25 20.0485 5.30997 21.1213 6.58193 21.1213H8.13655L6.93525 22.7304C6.08728 23.8032 5.59263 25.1262 5.59263 26.5208V33.2077C5.59263 34.1374 6.08728 34.9956 6.89992 35.4963V38.7861C6.89992 40.1806 7.99522 41.2892 9.37317 41.2892H11.9878C13.3657 41.2892 14.461 40.1806 14.461 38.7861V35.8538H35.1304V38.7861C35.1304 40.1806 36.2257 41.2892 37.6036 41.2892H40.2182C41.5962 41.2892 42.6915 40.1806 42.6915 38.7861V35.4963C43.5041 35.0314 43.9988 34.1732 43.9988 33.2077V26.4851C43.9988 25.0905 43.5395 23.7674 42.6915 22.7304L41.4548 21.1213H43.0095C44.3168 21.1213 45.3414 20.0485 45.3414 18.7612ZM13.5777 13.4331C13.5777 13.4331 13.5777 13.3974 13.613 13.3974C14.0017 12.3246 16.263 11.0731 24.8134 11.0731C33.3638 11.0731 35.625 12.3246 36.0137 13.3974C36.0137 13.3974 36.0137 13.4331 36.049 13.4331L38.9109 19.7267C36.897 20.2631 27.8519 20.2631 24.8134 20.2631C21.7748 20.2631 12.7297 20.2631 10.7158 19.7267L13.5777 13.4331ZM6.58193 19.7624C6.01661 19.7624 5.59263 19.2976 5.59263 18.7612C5.59263 18.2248 6.05194 17.7599 6.58193 17.7599H8.98452C9.12585 17.7599 9.26718 17.903 9.26718 18.046V19.5121C9.26718 19.6552 9.12585 19.7982 8.98452 19.7982H6.58193V19.7624ZM13.1537 38.7503C13.1537 39.3939 12.6237 39.9303 11.9878 39.9303H9.37317C8.73719 39.9303 8.20721 39.3939 8.20721 38.7503V35.8181H13.1184V38.7503H13.1537ZM32.3745 34.4593H17.2523V34.0301C17.2523 33.3507 17.8176 32.7786 18.4889 32.7786H31.1732C31.8445 32.7786 32.4098 33.3507 32.4098 34.0301V34.4593H32.3745ZM41.3842 38.7503C41.3842 39.3939 40.8542 39.9303 40.2182 39.9303H37.6036C36.9677 39.9303 36.4377 39.3939 36.4377 38.7503V35.8181H41.3489V38.7503H41.3842ZM41.6315 23.5529C42.3028 24.3753 42.6561 25.4123 42.6561 26.4851V33.1719C42.6561 33.8871 42.0908 34.4593 41.3842 34.4593H33.6818V34.0301C33.6818 32.5998 32.5511 31.4555 31.1378 31.4555H18.4536C17.0403 31.4555 15.9096 32.5998 15.9096 34.0301V34.4593H8.17188C7.46523 34.4593 6.89992 33.8871 6.89992 33.1719V26.4851C6.89992 25.4123 7.28857 24.3753 7.95988 23.5171L9.97382 20.871C11.0691 21.3001 14.143 21.5861 24.8134 21.5861C35.4837 21.5861 38.5576 21.3001 39.6529 20.871L41.6315 23.5529ZM40.6069 19.7624C40.4655 19.7624 40.3242 19.6194 40.3242 19.4764V18.0103C40.3242 17.8672 40.4655 17.7242 40.6069 17.7242H43.0095C43.5748 17.7242 43.9988 18.189 43.9988 18.7254C43.9988 19.2618 43.5394 19.7267 43.0095 19.7267H40.6069V19.7624Z" fill="#6D717F"/>
<path d="M30.7845 24.0535H18.8069C17.6056 24.0535 16.6516 25.0547 16.6516 26.2347C16.6516 28.0942 18.1356 29.5961 19.9728 29.5961H29.6539C31.4912 29.5961 32.9751 28.0942 32.9751 26.2347C32.9751 25.0547 31.9858 24.0535 30.7845 24.0535ZM29.6185 28.273H19.9728C18.8775 28.273 17.9589 27.379 17.9589 26.2347C17.9589 25.7699 18.3476 25.3765 18.8069 25.3765H30.7845C31.2438 25.3765 31.6325 25.7699 31.6325 26.2347C31.6325 27.379 30.7492 28.273 29.6185 28.273Z" fill="#6D717F"/>
<rect x="35.675" y="24.675" width="4.65" height="4.65" rx="0.825" stroke="#6D717F" stroke-width="1.35"/>
<rect x="9.425" y="24.675" width="4.65" height="4.65" rx="0.825" stroke="#6D717F" stroke-width="1.35"/>
</svg>
